<?xml version="1.0" encoding="UTF-8" standalone="no"?><svg xmlns="http://www.w3.org/2000/svg" xmlns:xlink="http://www.w3.org/1999/xlink" contentScriptType="application/ecmascript" contentStyleType="text/css" height="888px" preserveAspectRatio="none" style="width:1382px;height:888px;" version="1.1" viewBox="0 0 1382 888" width="1382px" zoomAndPan="magnify"><defs/><g><!--MD5=[4092ff977e02c48265be5bc47d233dbf]
cluster parkingcontext--><polygon fill="#FFFFFF" points="22,24.5,136,24.5,143,46.9883,1068,46.9883,1068,876,22,876,22,24.5" style="stroke: #000000; stroke-width: 1.5;"/><line style="stroke: #000000; stroke-width: 1.5;" x1="22" x2="143" y1="46.9883" y2="46.9883"/><text fill="#000000" font-family="sans-serif" font-size="14" font-weight="bold" lengthAdjust="spacingAndGlyphs" textLength="108" x="26" y="40.0352">parkingcontext</text><text fill="#000000" font-family="sans-serif" font-size="14" font-style="italic" lengthAdjust="spacingAndGlyphs" textLength="130" x="484" y="62.5234">«Core SubDomain»</text><!--MD5=[e3a36beeec423e29be592698a98a3a6f]
cluster parking--><polygon fill="#FFFFFF" points="48,83.5,109,83.5,116,105.9883,1027,105.9883,1027,408,48,408,48,83.5" style="stroke: #000000; stroke-width: 1.5;"/><line style="stroke: #000000; stroke-width: 1.5;" x1="48" x2="116" y1="105.9883" y2="105.9883"/><text fill="#000000" font-family="sans-serif" font-size="14" font-weight="bold" lengthAdjust="spacingAndGlyphs" textLength="55" x="52" y="99.0352">parking</text><!--MD5=[68862001c79a3045a6a206cd6c494f2b]
cluster finder--><polygon fill="#FFFFFF" points="46,432,95,432,102,454.4883,1044,454.4883,1044,710,46,710,46,432" style="stroke: #000000; stroke-width: 1.5;"/><line style="stroke: #000000; stroke-width: 1.5;" x1="46" x2="102" y1="454.4883" y2="454.4883"/><text fill="#000000" font-family="sans-serif" font-size="14" font-weight="bold" lengthAdjust="spacingAndGlyphs" textLength="43" x="50" y="447.5352">finder</text><!--MD5=[73372e1614ca5de955321ff74365eabf]
cluster policy--><polygon fill="#FFFFFF" points="118,734,167,734,174,756.4883,973,756.4883,973,852,118,852,118,734" style="stroke: #000000; stroke-width: 1.5;"/><line style="stroke: #000000; stroke-width: 1.5;" x1="118" x2="174" y1="756.4883" y2="756.4883"/><text fill="#000000" font-family="sans-serif" font-size="14" font-weight="bold" lengthAdjust="spacingAndGlyphs" textLength="43" x="122" y="749.5352">policy</text><!--MD5=[c749c6482c9c5e6e90dc35057136b750]
cluster configcontext--><polygon fill="#FFFFFF" points="1092,80.5,1196,80.5,1203,102.9883,1360,102.9883,1360,563,1092,563,1092,80.5" style="stroke: #000000; stroke-width: 1.5;"/><line style="stroke: #000000; stroke-width: 1.5;" x1="1092" x2="1203" y1="102.9883" y2="102.9883"/><text fill="#000000" font-family="sans-serif" font-size="14" font-weight="bold" lengthAdjust="spacingAndGlyphs" textLength="98" x="1096" y="96.0352">configcontext</text><text fill="#000000" font-family="sans-serif" font-size="14" font-style="italic" lengthAdjust="spacingAndGlyphs" textLength="152" x="1154" y="118.5234">«Support SubDomain»</text><!--MD5=[5e66417405a5893d0b8c5e798c7d6ba9]
class FindParkingLotService--><rect fill="#AFEEEE" height="60.9551" id="FindParkingLotService" style="stroke: #A80036; stroke-width: 1.5;" width="320" x="64" y="148"/><ellipse cx="157.75" cy="164" fill="#B4A7E5" rx="11" ry="11" style="stroke: #A80036; stroke-width: 1.0;"/><path d="M154.1777,160.2651 L154.1777,158.1069 L161.5571,158.1069 L161.5571,160.2651 L159.0918,160.2651 L159.0918,168.3418 L161.5571,168.3418 L161.5571,170.5 L154.1777,170.5 L154.1777,168.3418 L156.6431,168.3418 L156.6431,160.2651 Z "/><text fill="#000000" font-family="sans-serif" font-size="12" font-style="italic" lengthAdjust="spacingAndGlyphs" textLength="124" x="178.25" y="168.5352">FindParkingLotService</text><line style="stroke: #A80036; stroke-width: 1.5;" x1="65" x2="383" y1="180" y2="180"/><line style="stroke: #A80036; stroke-width: 1.5;" x1="65" x2="383" y1="188" y2="188"/><text fill="#000000" font-family="sans-serif" font-size="11" lengthAdjust="spacingAndGlyphs" textLength="308" x="70" y="202.6348">findParkingLot(ParkingLotFinderSpecification): ParkingLot</text><!--MD5=[e40b76647e3047dc2baacb7ee31d1eeb]
class ParkingLotFinderSpecification--><rect fill="#AFEEEE" height="60.9551" id="ParkingLotFinderSpecification" style="stroke: #A80036; stroke-width: 1.5;" width="229" x="109.5" y="321.5"/><ellipse cx="138" cy="337.5" fill="#B4A7E5" rx="11" ry="11" style="stroke: #A80036; stroke-width: 1.0;"/><path d="M134.4277,333.7651 L134.4277,331.6069 L141.8071,331.6069 L141.8071,333.7651 L139.3418,333.7651 L139.3418,341.8418 L141.8071,341.8418 L141.8071,344 L134.4277,344 L134.4277,341.8418 L136.8931,341.8418 L136.8931,333.7651 Z "/><text fill="#000000" font-family="sans-serif" font-size="12" font-style="italic" lengthAdjust="spacingAndGlyphs" textLength="167" x="155" y="342.0352">ParkingLotFinderSpecification</text><line style="stroke: #A80036; stroke-width: 1.5;" x1="110.5" x2="337.5" y1="353.5" y2="353.5"/><line style="stroke: #A80036; stroke-width: 1.5;" x1="110.5" x2="337.5" y1="361.5" y2="361.5"/><text fill="#000000" font-family="sans-serif" font-size="11" lengthAdjust="spacingAndGlyphs" textLength="217" x="115.5" y="376.1348">newParkingLotFinder(): ParkingLotFinder</text><!--MD5=[9f9207f710355d420595435ddcf72b62]
class ParkingLotFinder--><rect fill="#AFEEEE" height="60.9551" id="ParkingLotFinder" style="stroke: #A80036; stroke-width: 1.5;" width="198" x="813" y="148"/><ellipse cx="859.75" cy="164" fill="#B4A7E5" rx="11" ry="11" style="stroke: #A80036; stroke-width: 1.0;"/><path d="M856.1777,160.2651 L856.1777,158.1069 L863.5571,158.1069 L863.5571,160.2651 L861.0918,160.2651 L861.0918,168.3418 L863.5571,168.3418 L863.5571,170.5 L856.1777,170.5 L856.1777,168.3418 L858.6431,168.3418 L858.6431,160.2651 Z "/><text fill="#000000" font-family="sans-serif" font-size="12" font-style="italic" lengthAdjust="spacingAndGlyphs" textLength="96" x="880.25" y="168.5352">ParkingLotFinder</text><line style="stroke: #A80036; stroke-width: 1.5;" x1="814" x2="1010" y1="180" y2="180"/><line style="stroke: #A80036; stroke-width: 1.5;" x1="814" x2="1010" y1="188" y2="188"/><text fill="#000000" font-family="sans-serif" font-size="11" lengthAdjust="spacingAndGlyphs" textLength="186" x="819" y="202.6348">findParkingLotToPark(): ParkingLot</text><!--MD5=[8836a49f4083a7550430b1f83332c96a]
class ParkingLot--><rect fill="#AFEEEE" height="120.2188" id="ParkingLot" style="stroke: #A80036; stroke-width: 1.5;" width="209" x="568.5" y="118.5"/><ellipse cx="635.25" cy="144.6992" fill="#ADD1B2" rx="11" ry="11" style="stroke: #A80036; stroke-width: 1.0;"/><path d="M637.7231,150.8423 Q637.1421,151.1411 636.5029,151.2905 Q635.8638,151.4399 635.1582,151.4399 Q632.6514,151.4399 631.3315,149.7881 Q630.0117,148.1362 630.0117,145.0151 Q630.0117,141.8857 631.3315,140.2339 Q632.6514,138.582 635.1582,138.582 Q635.8638,138.582 636.5112,138.7314 Q637.1587,138.8809 637.7231,139.1797 L637.7231,141.9023 Q637.0923,141.3213 636.4988,141.0515 Q635.9053,140.7817 635.2744,140.7817 Q633.9297,140.7817 633.2449,141.8484 Q632.5601,142.915 632.5601,145.0151 Q632.5601,147.1069 633.2449,148.1736 Q633.9297,149.2402 635.2744,149.2402 Q635.9053,149.2402 636.4988,148.9705 Q637.0923,148.7007 637.7231,148.1196 Z "/><text fill="#000000" font-family="sans-serif" font-size="12" font-style="italic" lengthAdjust="spacingAndGlyphs" textLength="43" x="667.75" y="135.1016">«Entity»</text><text fill="#000000" font-family="sans-serif" font-size="12" font-style="italic" lengthAdjust="spacingAndGlyphs" textLength="71" x="653.75" y="149.2344">«Aggregate»</text><text fill="#000000" font-family="sans-serif" font-size="12" lengthAdjust="spacingAndGlyphs" textLength="60" x="659.25" y="163.3672">ParkingLot</text><line style="stroke: #A80036; stroke-width: 1.5;" x1="569.5" x2="776.5" y1="170.8984" y2="170.8984"/><text fill="#000000" font-family="sans-serif" font-size="11" lengthAdjust="spacingAndGlyphs" textLength="83" x="574.5" y="185.5332">id: ParkingLotId</text><text fill="#000000" font-family="sans-serif" font-size="11" lengthAdjust="spacingAndGlyphs" textLength="197" x="574.5" y="198.4883">ticketToCarMap: Map&lt;TicketId, Car&gt;</text><line style="stroke: #A80036; stroke-width: 1.0;" x1="569.5" x2="776.5" y1="204.8086" y2="204.8086"/><text fill="#000000" font-family="sans-serif" font-size="11" lengthAdjust="spacingAndGlyphs" textLength="109" x="574.5" y="219.4434">park(Car car): Ticket</text><text fill="#000000" font-family="sans-serif" font-size="11" lengthAdjust="spacingAndGlyphs" textLength="139" x="574.5" y="232.3984">pick(TicketId ticketId): Car</text><!--MD5=[ac6bea31e13c94c7baa9ad18feb7405e]
class Ticket--><rect fill="#AFEEEE" height="80.1758" id="Ticket" style="stroke: #A80036; stroke-width: 1.5;" width="153" x="596.5" y="312"/><ellipse cx="629.05" cy="331.1328" fill="#ADD1B2" rx="11" ry="11" style="stroke: #A80036; stroke-width: 1.0;"/><path d="M631.5231,337.2759 Q630.9421,337.5747 630.3029,337.7241 Q629.6638,337.8735 628.9582,337.8735 Q626.4514,337.8735 625.1315,336.2217 Q623.8117,334.5698 623.8117,331.4487 Q623.8117,328.3193 625.1315,326.6675 Q626.4514,325.0156 628.9582,325.0156 Q629.6638,325.0156 630.3112,325.165 Q630.9587,325.3145 631.5231,325.6133 L631.5231,328.3359 Q630.8923,327.7549 630.2988,327.4851 Q629.7053,327.2153 629.0744,327.2153 Q627.7297,327.2153 627.0449,328.282 Q626.3601,329.3486 626.3601,331.4487 Q626.3601,333.5405 627.0449,334.6072 Q627.7297,335.6738 629.0744,335.6738 Q629.7053,335.6738 630.2988,335.4041 Q630.8923,335.1343 631.5231,334.5532 Z "/><text fill="#000000" font-family="sans-serif" font-size="12" font-style="italic" lengthAdjust="spacingAndGlyphs" textLength="86" x="644.95" y="328.6016">«Value Object»</text><text fill="#000000" font-family="sans-serif" font-size="12" lengthAdjust="spacingAndGlyphs" textLength="35" x="670.45" y="342.7344">Ticket</text><line style="stroke: #A80036; stroke-width: 1.5;" x1="597.5" x2="748.5" y1="350.2656" y2="350.2656"/><text fill="#000000" font-family="sans-serif" font-size="11" lengthAdjust="spacingAndGlyphs" textLength="100" x="602.5" y="364.9004">licensePlate: String</text><text fill="#000000" font-family="sans-serif" font-size="11" lengthAdjust="spacingAndGlyphs" textLength="141" x="602.5" y="377.8555">parkingLotId: ParkingLotId</text><line style="stroke: #A80036; stroke-width: 1.5;" x1="597.5" x2="748.5" y1="384.1758" y2="384.1758"/><!--MD5=[3f0ef310aaa84a542276992c5216544d]
class Car--><rect fill="#AFEEEE" height="67.2207" id="Car" style="stroke: #A80036; stroke-width: 1.5;" width="114" x="419" y="145"/><ellipse cx="434" cy="164.1328" fill="#ADD1B2" rx="11" ry="11" style="stroke: #A80036; stroke-width: 1.0;"/><path d="M436.4731,170.2759 Q435.8921,170.5747 435.2529,170.7241 Q434.6138,170.8735 433.9082,170.8735 Q431.4014,170.8735 430.0815,169.2217 Q428.7617,167.5698 428.7617,164.4487 Q428.7617,161.3193 430.0815,159.6675 Q431.4014,158.0156 433.9082,158.0156 Q434.6138,158.0156 435.2612,158.165 Q435.9087,158.3145 436.4731,158.6133 L436.4731,161.3359 Q435.8423,160.7549 435.2488,160.4851 Q434.6553,160.2153 434.0244,160.2153 Q432.6797,160.2153 431.9949,161.282 Q431.3101,162.3486 431.3101,164.4487 Q431.3101,166.5405 431.9949,167.6072 Q432.6797,168.6738 434.0244,168.6738 Q434.6553,168.6738 435.2488,168.4041 Q435.8423,168.1343 436.4731,167.5532 Z "/><text fill="#000000" font-family="sans-serif" font-size="12" font-style="italic" lengthAdjust="spacingAndGlyphs" textLength="86" x="446" y="161.6016">«Value Object»</text><text fill="#000000" font-family="sans-serif" font-size="12" lengthAdjust="spacingAndGlyphs" textLength="20" x="479" y="175.7344">Car</text><line style="stroke: #A80036; stroke-width: 1.5;" x1="420" x2="532" y1="183.2656" y2="183.2656"/><text fill="#000000" font-family="sans-serif" font-size="11" lengthAdjust="spacingAndGlyphs" textLength="100" x="425" y="197.9004">licensePlate: String</text><line style="stroke: #A80036; stroke-width: 1.5;" x1="420" x2="532" y1="204.2207" y2="204.2207"/><!--MD5=[a605dfde77ccc7e8548b005c32094ba6]
class ParkingManagerSpecification--><rect fill="#AFEEEE" height="60.9551" id="ParkingManagerSpecification" style="stroke: #A80036; stroke-width: 1.5;" width="229" x="326.5" y="489.5"/><ellipse cx="356.35" cy="505.5" fill="#ADD1B2" rx="11" ry="11" style="stroke: #A80036; stroke-width: 1.0;"/><path d="M358.8231,511.6431 Q358.2421,511.9419 357.6029,512.0913 Q356.9638,512.2407 356.2582,512.2407 Q353.7514,512.2407 352.4315,510.5889 Q351.1117,508.937 351.1117,505.8159 Q351.1117,502.6865 352.4315,501.0347 Q353.7514,499.3828 356.2582,499.3828 Q356.9638,499.3828 357.6112,499.5322 Q358.2587,499.6816 358.8231,499.9805 L358.8231,502.7031 Q358.1923,502.1221 357.5988,501.8523 Q357.0053,501.5825 356.3744,501.5825 Q355.0297,501.5825 354.3449,502.6492 Q353.6601,503.7158 353.6601,505.8159 Q353.6601,507.9077 354.3449,508.9744 Q355.0297,510.041 356.3744,510.041 Q357.0053,510.041 357.5988,509.7712 Q358.1923,509.5015 358.8231,508.9204 Z "/><text fill="#000000" font-family="sans-serif" font-size="12" lengthAdjust="spacingAndGlyphs" textLength="164" x="373.65" y="510.0352">ParkingManagerSpecification</text><line style="stroke: #A80036; stroke-width: 1.5;" x1="327.5" x2="554.5" y1="521.5" y2="521.5"/><line style="stroke: #A80036; stroke-width: 1.5;" x1="327.5" x2="554.5" y1="529.5" y2="529.5"/><text fill="#000000" font-family="sans-serif" font-size="11" lengthAdjust="spacingAndGlyphs" textLength="217" x="332.5" y="544.1348">newParkingLotFinder(): ParkingLotFinder</text><!--MD5=[2473be75f06689b70361fb1a441cf231]
class ParkingBoySpecification--><rect fill="#AFEEEE" height="73.9102" id="ParkingBoySpecification" style="stroke: #A80036; stroke-width: 1.5;" width="229" x="62.5" y="483"/><ellipse cx="105.85" cy="499" fill="#ADD1B2" rx="11" ry="11" style="stroke: #A80036; stroke-width: 1.0;"/><path d="M108.3231,505.1431 Q107.7421,505.4419 107.1029,505.5913 Q106.4638,505.7407 105.7582,505.7407 Q103.2514,505.7407 101.9315,504.0889 Q100.6117,502.437 100.6117,499.3159 Q100.6117,496.1865 101.9315,494.5347 Q103.2514,492.8828 105.7582,492.8828 Q106.4638,492.8828 107.1112,493.0322 Q107.7587,493.1816 108.3231,493.4805 L108.3231,496.2031 Q107.6923,495.6221 107.0988,495.3523 Q106.5053,495.0825 105.8744,495.0825 Q104.5297,495.0825 103.8449,496.1492 Q103.1601,497.2158 103.1601,499.3159 Q103.1601,501.4077 103.8449,502.4744 Q104.5297,503.541 105.8744,503.541 Q106.5053,503.541 107.0988,503.2712 Q107.6923,503.0015 108.3231,502.4204 Z "/><text fill="#000000" font-family="sans-serif" font-size="12" lengthAdjust="spacingAndGlyphs" textLength="134" x="126.15" y="503.5352">ParkingBoySpecification</text><line style="stroke: #A80036; stroke-width: 1.5;" x1="63.5" x2="290.5" y1="515" y2="515"/><text fill="#000000" font-family="sans-serif" font-size="11" lengthAdjust="spacingAndGlyphs" textLength="181" x="68.5" y="529.6348">parkingBoyConfigId: ParkingBoyId</text><line style="stroke: #A80036; stroke-width: 1.0;" x1="63.5" x2="290.5" y1="535.9551" y2="535.9551"/><text fill="#000000" font-family="sans-serif" font-size="11" lengthAdjust="spacingAndGlyphs" textLength="217" x="68.5" y="550.5898">newParkingLotFinder(): ParkingLotFinder</text><!--MD5=[a74aec3d83625971ac54d640d7e22da1]
class ParkingBoy--><rect fill="#AFEEEE" height="106.0859" id="ParkingBoy" style="stroke: #A80036; stroke-width: 1.5;" width="176" x="591" y="467"/><ellipse cx="633.9" cy="486.1328" fill="#ADD1B2" rx="11" ry="11" style="stroke: #A80036; stroke-width: 1.0;"/><path d="M636.3731,492.2759 Q635.7921,492.5747 635.1529,492.7241 Q634.5138,492.8735 633.8082,492.8735 Q631.3014,492.8735 629.9815,491.2217 Q628.6617,489.5698 628.6617,486.4487 Q628.6617,483.3193 629.9815,481.6675 Q631.3014,480.0156 633.8082,480.0156 Q634.5138,480.0156 635.1612,480.165 Q635.8087,480.3145 636.3731,480.6133 L636.3731,483.3359 Q635.7423,482.7549 635.1488,482.4851 Q634.5553,482.2153 633.9244,482.2153 Q632.5797,482.2153 631.8949,483.282 Q631.2101,484.3486 631.2101,486.4487 Q631.2101,488.5405 631.8949,489.6072 Q632.5797,490.6738 633.9244,490.6738 Q634.5553,490.6738 635.1488,490.4041 Q635.7423,490.1343 636.3731,489.5532 Z "/><text fill="#000000" font-family="sans-serif" font-size="12" font-style="italic" lengthAdjust="spacingAndGlyphs" textLength="86" x="652.1" y="483.6016">«Value Object»</text><text fill="#000000" font-family="sans-serif" font-size="12" lengthAdjust="spacingAndGlyphs" textLength="63" x="663.6" y="497.7344">ParkingBoy</text><line style="stroke: #A80036; stroke-width: 1.5;" x1="592" x2="766" y1="505.2656" y2="505.2656"/><text fill="#000000" font-family="sans-serif" font-size="11" lengthAdjust="spacingAndGlyphs" textLength="67" x="597" y="519.9004">name: String</text><text fill="#000000" font-family="sans-serif" font-size="11" lengthAdjust="spacingAndGlyphs" textLength="164" x="597" y="532.8555">parkingLots: List&lt;ParkingLot&gt;</text><text fill="#000000" font-family="sans-serif" font-size="11" lengthAdjust="spacingAndGlyphs" textLength="149" x="597" y="545.8105">parkingPolicy: ParkingPolicy</text><line style="stroke: #A80036; stroke-width: 1.0;" x1="592" x2="766" y1="552.1309" y2="552.1309"/><text fill="#000000" font-family="sans-serif" font-size="11" lengthAdjust="spacingAndGlyphs" textLength="156" x="597" y="566.7656">find(): Optional&lt;ParkingLot&gt;</text><!--MD5=[696acefdaef44c4160919c807d2b21f6]
class ParkingManager--><rect fill="#AFEEEE" height="106.0859" id="ParkingManager" style="stroke: #A80036; stroke-width: 1.5;" width="225" x="802.5" y="467"/><ellipse cx="864.25" cy="486.1328" fill="#ADD1B2" rx="11" ry="11" style="stroke: #A80036; stroke-width: 1.0;"/><path d="M866.7231,492.2759 Q866.1421,492.5747 865.5029,492.7241 Q864.8638,492.8735 864.1582,492.8735 Q861.6514,492.8735 860.3315,491.2217 Q859.0117,489.5698 859.0117,486.4487 Q859.0117,483.3193 860.3315,481.6675 Q861.6514,480.0156 864.1582,480.0156 Q864.8638,480.0156 865.5112,480.165 Q866.1587,480.3145 866.7231,480.6133 L866.7231,483.3359 Q866.0923,482.7549 865.4988,482.4851 Q864.9053,482.2153 864.2744,482.2153 Q862.9297,482.2153 862.2449,483.282 Q861.5601,484.3486 861.5601,486.4487 Q861.5601,488.5405 862.2449,489.6072 Q862.9297,490.6738 864.2744,490.6738 Q864.9053,490.6738 865.4988,490.4041 Q866.0923,490.1343 866.7231,489.5532 Z "/><text fill="#000000" font-family="sans-serif" font-size="12" font-style="italic" lengthAdjust="spacingAndGlyphs" textLength="86" x="888.25" y="483.6016">«Value Object»</text><text fill="#000000" font-family="sans-serif" font-size="12" lengthAdjust="spacingAndGlyphs" textLength="93" x="884.75" y="497.7344">ParkingManager</text><line style="stroke: #A80036; stroke-width: 1.5;" x1="803.5" x2="1026.5" y1="505.2656" y2="505.2656"/><text fill="#000000" font-family="sans-serif" font-size="11" lengthAdjust="spacingAndGlyphs" textLength="67" x="808.5" y="519.9004">name: String</text><text fill="#000000" font-family="sans-serif" font-size="11" lengthAdjust="spacingAndGlyphs" textLength="168" x="808.5" y="532.8555">parkingBoys: List&lt;ParkingBoy&gt;</text><line style="stroke: #A80036; stroke-width: 1.0;" x1="803.5" x2="1026.5" y1="539.1758" y2="539.1758"/><text fill="#000000" font-family="sans-serif" font-size="11" lengthAdjust="spacingAndGlyphs" textLength="197" x="808.5" y="553.8105">listParkingLotIds(): List&lt;ParkingLot&gt;</text><text fill="#000000" font-family="sans-serif" font-size="11" lengthAdjust="spacingAndGlyphs" textLength="213" x="808.5" y="566.7656">findParkingLot(): Optional&lt;ParkingLot&gt;</text><!--MD5=[8e30804bc9aef698eb0b77298d21916d]
class ParkingPolicy--><rect fill="#AFEEEE" height="60.9551" id="ParkingPolicy" style="stroke: #A80036; stroke-width: 1.5;" width="394" x="482" y="633"/><ellipse cx="637.25" cy="649" fill="#B4A7E5" rx="11" ry="11" style="stroke: #A80036; stroke-width: 1.0;"/><path d="M633.6777,645.2651 L633.6777,643.1069 L641.0571,643.1069 L641.0571,645.2651 L638.5918,645.2651 L638.5918,653.3418 L641.0571,653.3418 L641.0571,655.5 L633.6777,655.5 L633.6777,653.3418 L636.1431,653.3418 L636.1431,645.2651 Z "/><text fill="#000000" font-family="sans-serif" font-size="12" font-style="italic" lengthAdjust="spacingAndGlyphs" textLength="75" x="657.75" y="653.5352">ParkingPolicy</text><line style="stroke: #A80036; stroke-width: 1.5;" x1="483" x2="875" y1="665" y2="665"/><line style="stroke: #A80036; stroke-width: 1.5;" x1="483" x2="875" y1="673" y2="673"/><text fill="#000000" font-family="sans-serif" font-size="11" lengthAdjust="spacingAndGlyphs" textLength="382" x="488" y="687.6348">findParkingLotToPark(Collection&lt;ParkingLot&gt; parkingLots): ParkingLot</text><!--MD5=[e82c23217d5f7be961acddcd0dd6e696]
class SeniorParkingPolicy--><rect fill="#AFEEEE" height="67.2207" id="SeniorParkingPolicy" style="stroke: #A80036; stroke-width: 1.5;" width="394" x="563" y="769"/><ellipse cx="700.75" cy="788.1328" fill="#ADD1B2" rx="11" ry="11" style="stroke: #A80036; stroke-width: 1.0;"/><path d="M703.2231,794.2759 Q702.6421,794.5747 702.0029,794.7241 Q701.3638,794.8735 700.6582,794.8735 Q698.1514,794.8735 696.8315,793.2217 Q695.5117,791.5698 695.5117,788.4487 Q695.5117,785.3193 696.8315,783.6675 Q698.1514,782.0156 700.6582,782.0156 Q701.3638,782.0156 702.0112,782.165 Q702.6587,782.3145 703.2231,782.6133 L703.2231,785.3359 Q702.5923,784.7549 701.9988,784.4851 Q701.4053,784.2153 700.7744,784.2153 Q699.4297,784.2153 698.7449,785.282 Q698.0601,786.3486 698.0601,788.4487 Q698.0601,790.5405 698.7449,791.6072 Q699.4297,792.6738 700.7744,792.6738 Q701.4053,792.6738 701.9988,792.4041 Q702.5923,792.1343 703.2231,791.5532 Z "/><text fill="#000000" font-family="sans-serif" font-size="12" font-style="italic" lengthAdjust="spacingAndGlyphs" textLength="86" x="733.25" y="785.6016">«Value Object»</text><text fill="#000000" font-family="sans-serif" font-size="12" lengthAdjust="spacingAndGlyphs" textLength="110" x="721.25" y="799.7344">SeniorParkingPolicy</text><line style="stroke: #A80036; stroke-width: 1.5;" x1="564" x2="956" y1="807.2656" y2="807.2656"/><line style="stroke: #A80036; stroke-width: 1.5;" x1="564" x2="956" y1="815.2656" y2="815.2656"/><text fill="#000000" font-family="sans-serif" font-size="11" lengthAdjust="spacingAndGlyphs" textLength="382" x="569" y="829.9004">findParkingLotToPark(Collection&lt;ParkingLot&gt; parkingLots): ParkingLot</text><!--MD5=[2007a0d353a1bf704890b9bd797ea0ea]
class JuniorParkingPolicy--><rect fill="#AFEEEE" height="67.2207" id="JuniorParkingPolicy" style="stroke: #A80036; stroke-width: 1.5;" width="394" x="134" y="769"/><ellipse cx="272.75" cy="788.1328" fill="#ADD1B2" rx="11" ry="11" style="stroke: #A80036; stroke-width: 1.0;"/><path d="M275.2231,794.2759 Q274.6421,794.5747 274.0029,794.7241 Q273.3638,794.8735 272.6582,794.8735 Q270.1514,794.8735 268.8315,793.2217 Q267.5117,791.5698 267.5117,788.4487 Q267.5117,785.3193 268.8315,783.6675 Q270.1514,782.0156 272.6582,782.0156 Q273.3638,782.0156 274.0112,782.165 Q274.6587,782.3145 275.2231,782.6133 L275.2231,785.3359 Q274.5923,784.7549 273.9988,784.4851 Q273.4053,784.2153 272.7744,784.2153 Q271.4297,784.2153 270.7449,785.282 Q270.0601,786.3486 270.0601,788.4487 Q270.0601,790.5405 270.7449,791.6072 Q271.4297,792.6738 272.7744,792.6738 Q273.4053,792.6738 273.9988,792.4041 Q274.5923,792.1343 275.2231,791.5532 Z "/><text fill="#000000" font-family="sans-serif" font-size="12" font-style="italic" lengthAdjust="spacingAndGlyphs" textLength="86" x="304.25" y="785.6016">«Value Object»</text><text fill="#000000" font-family="sans-serif" font-size="12" lengthAdjust="spacingAndGlyphs" textLength="108" x="293.25" y="799.7344">JuniorParkingPolicy</text><line style="stroke: #A80036; stroke-width: 1.5;" x1="135" x2="527" y1="807.2656" y2="807.2656"/><line style="stroke: #A80036; stroke-width: 1.5;" x1="135" x2="527" y1="815.2656" y2="815.2656"/><text fill="#000000" font-family="sans-serif" font-size="11" lengthAdjust="spacingAndGlyphs" textLength="382" x="140" y="829.9004">findParkingLotToPark(Collection&lt;ParkingLot&gt; parkingLots): ParkingLot</text><!--MD5=[e1dc083d081074c87436be7a70a26f48]
class configcontext.ParkingManagerConfig--><rect fill="#AFEEEE" height="94.3086" id="configcontext.ParkingManagerConfig" style="stroke: #A80036; stroke-width: 1.5;" width="236" x="1108" y="131.5"/><ellipse cx="1157.25" cy="157.6992" fill="#ADD1B2" rx="11" ry="11" style="stroke: #A80036; stroke-width: 1.0;"/><path d="M1159.7231,163.8423 Q1159.1421,164.1411 1158.5029,164.2905 Q1157.8638,164.4399 1157.1582,164.4399 Q1154.6514,164.4399 1153.3315,162.7881 Q1152.0117,161.1362 1152.0117,158.0151 Q1152.0117,154.8857 1153.3315,153.2339 Q1154.6514,151.582 1157.1582,151.582 Q1157.8638,151.582 1158.5112,151.7314 Q1159.1587,151.8809 1159.7231,152.1797 L1159.7231,154.9023 Q1159.0923,154.3213 1158.4988,154.0515 Q1157.9053,153.7817 1157.2744,153.7817 Q1155.9297,153.7817 1155.2449,154.8484 Q1154.5601,155.915 1154.5601,158.0151 Q1154.5601,160.1069 1155.2449,161.1736 Q1155.9297,162.2402 1157.2744,162.2402 Q1157.9053,162.2402 1158.4988,161.9705 Q1159.0923,161.7007 1159.7231,161.1196 Z "/><text fill="#000000" font-family="sans-serif" font-size="12" font-style="italic" lengthAdjust="spacingAndGlyphs" textLength="43" x="1220.75" y="148.1016">«Entity»</text><text fill="#000000" font-family="sans-serif" font-size="12" font-style="italic" lengthAdjust="spacingAndGlyphs" textLength="101" x="1191.75" y="162.2344">«Aggregate Root»</text><text fill="#000000" font-family="sans-serif" font-size="12" lengthAdjust="spacingAndGlyphs" textLength="129" x="1177.75" y="176.3672">ParkingManagerConfig</text><line style="stroke: #A80036; stroke-width: 1.5;" x1="1109" x2="1343" y1="183.8984" y2="183.8984"/><text fill="#000000" font-family="sans-serif" font-size="11" lengthAdjust="spacingAndGlyphs" textLength="148" x="1114" y="198.5332">id: ParkingManagerConfigId</text><text fill="#000000" font-family="sans-serif" font-size="11" lengthAdjust="spacingAndGlyphs" textLength="224" x="1114" y="211.4883">parkingBoyIds: List&lt;ParkingBoyConfigId&gt;</text><line style="stroke: #A80036; stroke-width: 1.5;" x1="1109" x2="1343" y1="217.8086" y2="217.8086"/><!--MD5=[64c8d568ef757bdc35861ddaaaf3d094]
class configcontext.ParkingBoyConfig--><rect fill="#AFEEEE" height="107.2637" id="configcontext.ParkingBoyConfig" style="stroke: #A80036; stroke-width: 1.5;" width="196" x="1128" y="298.5"/><ellipse cx="1172.25" cy="324.6992" fill="#ADD1B2" rx="11" ry="11" style="stroke: #A80036; stroke-width: 1.0;"/><path d="M1174.7231,330.8423 Q1174.1421,331.1411 1173.5029,331.2905 Q1172.8638,331.4399 1172.1582,331.4399 Q1169.6514,331.4399 1168.3315,329.7881 Q1167.0117,328.1362 1167.0117,325.0151 Q1167.0117,321.8857 1168.3315,320.2339 Q1169.6514,318.582 1172.1582,318.582 Q1172.8638,318.582 1173.5112,318.7314 Q1174.1587,318.8809 1174.7231,319.1797 L1174.7231,321.9023 Q1174.0923,321.3213 1173.4988,321.0515 Q1172.9053,320.7817 1172.2744,320.7817 Q1170.9297,320.7817 1170.2449,321.8484 Q1169.5601,322.915 1169.5601,325.0151 Q1169.5601,327.1069 1170.2449,328.1736 Q1170.9297,329.2402 1172.2744,329.2402 Q1172.9053,329.2402 1173.4988,328.9705 Q1174.0923,328.7007 1174.7231,328.1196 Z "/><text fill="#000000" font-family="sans-serif" font-size="12" font-style="italic" lengthAdjust="spacingAndGlyphs" textLength="43" x="1220.75" y="315.1016">«Entity»</text><text fill="#000000" font-family="sans-serif" font-size="12" font-style="italic" lengthAdjust="spacingAndGlyphs" textLength="101" x="1191.75" y="329.2344">«Aggregate Root»</text><text fill="#000000" font-family="sans-serif" font-size="12" lengthAdjust="spacingAndGlyphs" textLength="99" x="1192.75" y="343.3672">ParkingBoyConfig</text><line style="stroke: #A80036; stroke-width: 1.5;" x1="1129" x2="1323" y1="350.8984" y2="350.8984"/><text fill="#000000" font-family="sans-serif" font-size="11" lengthAdjust="spacingAndGlyphs" textLength="121" x="1134" y="365.5332">id: ParkingBoyConfigId</text><text fill="#000000" font-family="sans-serif" font-size="11" lengthAdjust="spacingAndGlyphs" textLength="184" x="1134" y="378.4883">parkingLotIds: List&lt;ParkingLotId&gt;</text><text fill="#000000" font-family="sans-serif" font-size="11" lengthAdjust="spacingAndGlyphs" textLength="136" x="1134" y="391.4434">name: ParkingPolicyName</text><line style="stroke: #A80036; stroke-width: 1.5;" x1="1129" x2="1323" y1="397.7637" y2="397.7637"/><!--MD5=[0e96eca41b477e0fe36843ec706c962f]
class configcontext.ParkingPolicyEnum--><rect fill="#AFEEEE" height="54.2656" id="configcontext.ParkingPolicyEnum" style="stroke: #A80036; stroke-width: 1.5;" width="139" x="1156.5" y="493"/><ellipse cx="1171.5" cy="512.1328" fill="#EB937F" rx="11" ry="11" style="stroke: #A80036; stroke-width: 1.0;"/><path d="M1175.1143,518.6328 L1167.3945,518.6328 L1167.3945,506.2397 L1175.1143,506.2397 L1175.1143,508.3979 L1169.8433,508.3979 L1169.8433,511.0708 L1174.6162,511.0708 L1174.6162,513.229 L1169.8433,513.229 L1169.8433,516.4746 L1175.1143,516.4746 Z "/><text fill="#000000" font-family="sans-serif" font-size="12" font-style="italic" lengthAdjust="spacingAndGlyphs" textLength="86" x="1196" y="509.6016">«Value Object»</text><text fill="#000000" font-family="sans-serif" font-size="12" lengthAdjust="spacingAndGlyphs" textLength="107" x="1185.5" y="523.7344">ParkingPolicyEnum</text><line style="stroke: #A80036; stroke-width: 1.5;" x1="1157.5" x2="1294.5" y1="531.2656" y2="531.2656"/><line style="stroke: #A80036; stroke-width: 1.5;" x1="1157.5" x2="1294.5" y1="539.2656" y2="539.2656"/><!--MD5=[71f1752c0b5d6bbb7251d4688b436c71]
link FindParkingLotService to ParkingLotFinderSpecification--><path d="M224,209.37 C224,239.13 224,284.79 224,316.17 " fill="none" id="FindParkingLotService-&gt;ParkingLotFinderSpecification" style="stroke: #2E8B57; stroke-width: 1.0; stroke-dasharray: 7.0,7.0;"/><polygon fill="#2E8B57" points="224,321.47,228,312.47,224,316.47,220,312.47,224,321.47" style="stroke: #2E8B57; stroke-width: 1.0;"/><!--MD5=[c4453ffc97906011c629b908aed7d06b]
link ParkingLot to Ticket--><path d="M673,250.52 C673,250.52 673,283.81 673,298.67 " fill="none" id="ParkingLot-Ticket" style="stroke: #2E8B57; stroke-width: 1.0;"/><polygon fill="#2E8B57" points="673,311.81,677,302.81,673,306.81,669,302.81,673,311.81" style="stroke: #2E8B57; stroke-width: 1.0;"/><line style="stroke: #2E8B57; stroke-width: 1.0;" x1="673" x2="673" y1="306.81" y2="298.81"/><polygon fill="#2E8B57" points="673,238.52,669,244.52,673,250.52,677,244.52,673,238.52" style="stroke: #2E8B57; stroke-width: 1.0;"/><text fill="#000000" font-family="sans-serif" font-size="13" lengthAdjust="spacingAndGlyphs" textLength="8" x="664.5125" y="259.323">1</text><text fill="#000000" font-family="sans-serif" font-size="13" lengthAdjust="spacingAndGlyphs" textLength="34" x="636.0781" y="301.1932">many</text><!--MD5=[f0773beeaff60c61ec8b789885552717]
link ParkingLot to Car--><path d="M568.25,203.52 C558.25,203.2 548.24,202.1 538.24,200.22 " fill="none" id="ParkingLot-&gt;Car" style="stroke: #2E8B57; stroke-width: 1.0;"/><polygon fill="#2E8B57" points="533.33,199.24,541.3644,204.9364,538.2318,200.2261,542.9421,197.0935,533.33,199.24" style="stroke: #2E8B57; stroke-width: 1.0;"/><text fill="#000000" font-family="sans-serif" font-size="13" lengthAdjust="spacingAndGlyphs" textLength="8" x="552.6035" y="202.3235">1</text><text fill="#000000" font-family="sans-serif" font-size="13" lengthAdjust="spacingAndGlyphs" textLength="34" x="541.4137" y="219.881">many</text><!--MD5=[2bcf7f6854289bd92e8367730b12fdbd]
link Car to ParkingLot--><!--MD5=[2da0eb64c308f1f5795fa8be987b53af]
reverse link ParkingLotFinderSpecification to ParkingManagerSpecification--><path d="M278.73,394.87 C317.22,424.31 367.79,463 402.18,489.3 " fill="none" id="ParkingLotFinderSpecification&lt;-ParkingManagerSpecification" style="stroke: #2E8B57; stroke-width: 1.0;"/><polygon fill="none" points="274.43,400.39,262.8,382.68,282.93,389.27,274.43,400.39" style="stroke: #2E8B57; stroke-width: 1.0;"/><!--MD5=[b13131bf591925a5a118b03b31b14940]
reverse link ParkingLotFinderSpecification to ParkingBoySpecification--><path d="M210.1,402.08 C202.76,428 193.92,459.26 187.21,482.93 " fill="none" id="ParkingLotFinderSpecification&lt;-ParkingBoySpecification" style="stroke: #2E8B57; stroke-width: 1.0;"/><polygon fill="none" points="203.41,400.01,215.6,382.68,216.88,403.83,203.41,400.01" style="stroke: #2E8B57; stroke-width: 1.0;"/><!--MD5=[4cc9287d541ae0bc4705cf63b3932eb4]
reverse link ParkingLotFinder to ParkingManager--><path d="M912.44,229.04 C913,292.52 913.97,402.08 914.54,466.81 " fill="none" id="ParkingLotFinder&lt;-ParkingManager" style="stroke: #2E8B57; stroke-width: 1.0;"/><polygon fill="none" points="905.44,229.1,912.26,209.03,919.44,228.97,905.44,229.1" style="stroke: #2E8B57; stroke-width: 1.0;"/><!--MD5=[d87deb69d3821e5849171392f634cb1b]
reverse link ParkingLotFinder to ParkingBoy--><path d="M885.99,226.69 C858.45,275.46 812.72,353.09 767,416 C754.55,433.12 739.98,450.94 726.32,466.84 " fill="none" id="ParkingLotFinder&lt;-ParkingBoy" style="stroke: #2E8B57; stroke-width: 1.0;"/><polygon fill="none" points="879.9,223.24,895.79,209.21,892.12,230.08,879.9,223.24" style="stroke: #2E8B57; stroke-width: 1.0;"/><!--MD5=[6dfbb869feca9c916705f6432a02825b]
link ParkingBoy to ParkingManager--><path d="M780.26,520 C783.24,520 790.3,520 790.3,520 " fill="none" id="ParkingBoy-ParkingManager" style="stroke: #2E8B57; stroke-width: 1.0;"/><polygon fill="#2E8B57" points="802.3,520,796.3,516,790.3,520,796.3,524,802.3,520" style="stroke: #2E8B57; stroke-width: 1.0;"/><polygon fill="#2E8B57" points="767.04,520,776.04,524,772.04,520,776.04,516,767.04,520" style="stroke: #2E8B57; stroke-width: 1.0;"/><line style="stroke: #2E8B57; stroke-width: 1.0;" x1="772.04" x2="780.04" y1="520" y2="520"/><!--MD5=[d7af20ae9b2a454334ce99bb34535a35]
link ParkingBoy to ParkingPolicy--><path d="M679,585.29 C679,585.29 679,609.18 679,619.58 " fill="none" id="ParkingBoy-ParkingPolicy" style="stroke: #2E8B57; stroke-width: 1.0;"/><polygon fill="#2E8B57" points="679,632.6,683,623.6,679,627.6,675,623.6,679,632.6" style="stroke: #2E8B57; stroke-width: 1.0;"/><line style="stroke: #2E8B57; stroke-width: 1.0;" x1="679" x2="679" y1="627.6" y2="619.6"/><polygon fill="#2E8B57" points="679,573.29,675,579.29,679,585.29,683,579.29,679,573.29" style="stroke: #2E8B57; stroke-width: 1.0;"/><!--MD5=[b212f1062a2897da52a5a581dffa2b00]
reverse link ParkingPolicy to SeniorParkingPolicy--><path d="M706.92,711.72 C718.08,730.59 730.65,751.86 740.76,768.96 " fill="none" id="ParkingPolicy&lt;-SeniorParkingPolicy" style="stroke: #2E8B57; stroke-width: 1.0;"/><polygon fill="none" points="700.73,715.01,696.58,694.23,712.78,707.88,700.73,715.01" style="stroke: #2E8B57; stroke-width: 1.0;"/><!--MD5=[b0ba85c3e327d57734c5329e54184eed]
reverse link ParkingPolicy to JuniorParkingPolicy--><path d="M585.19,701.43 C531.64,722.51 465.12,748.7 413.56,769 " fill="none" id="ParkingPolicy&lt;-JuniorParkingPolicy" style="stroke: #2E8B57; stroke-width: 1.0;"/><polygon fill="none" points="582.74,694.87,603.92,694.06,587.87,707.9,582.74,694.87" style="stroke: #2E8B57; stroke-width: 1.0;"/><!--MD5=[b5dbb98554140d7870e0fa6be0ab260a]
link configcontext.ParkingBoyConfig to configcontext.ParkingPolicyEnum--><path d="M1226,405.52 C1226,432.55 1226,464.57 1226,487.7 " fill="none" id="configcontext.ParkingBoyConfig-&gt;configcontext.ParkingPolicyEnum" style="stroke: #2E8B57; stroke-width: 1.0;"/><polygon fill="#2E8B57" points="1226,492.79,1230,483.79,1226,487.79,1222,483.79,1226,492.79" style="stroke: #2E8B57; stroke-width: 1.0;"/><!--MD5=[de687a0012a0d2aacdeef3a4c3452008]
link configcontext.ParkingManagerConfig to configcontext.ParkingBoyConfig--><!--MD5=[1d644c213429a3fbb2b8ef2772c58410]
@startuml parkinglot
skinparam Shadowing false
skinparam class {
    BackgroundColor PaleTurquoise 
    ArrowColor SeaGreen
}

package parkingcontext <<Core SubDomain>> {
    package parking {
        interface FindParkingLotService {
            findParkingLot(ParkingLotFinderSpecification): ParkingLot 
        }
        interface ParkingLotFinderSpecification {
            newParkingLotFinder(): ParkingLotFinder 
        }
        interface ParkingLotFinder {
            findParkingLotToPark(): ParkingLot 
        }
        class ParkingLot <<Entity>> <<Aggregate>> {
            id: ParkingLotId 
            ticketToCarMap: Map<TicketId, Car> 
            - -
            park(Car car): Ticket 
            pick(TicketId ticketId): Car 
        }
        class Ticket <<Value Object>> {
            licensePlate: String 
            parkingLotId: ParkingLotId 
        }
        class Car <<Value Object>> {
            licensePlate: String 
        }
        FindParkingLotService .down.> ParkingLotFinderSpecification
        ParkingLot "1" *-down-> "many" Ticket
        ParkingLot "1" -right-> "many" Car
        ParkingLot - -left[hidden] Car
    }

    package finder {
        class ParkingManagerSpecification {
            newParkingLotFinder(): ParkingLotFinder 
        }
        class ParkingBoySpecification {
            parkingBoyConfigId: ParkingBoyId 
            - -
            newParkingLotFinder(): ParkingLotFinder 
        }
        class ParkingBoy <<Value Object>> {
            name: String 
            parkingLots: List<ParkingLot> 
            parkingPolicy: ParkingPolicy 
            - -
            find(): Optional<ParkingLot> 
        }
        class ParkingManager <<Value Object>> {
            name: String 
            parkingBoys: List<ParkingBoy> 
            - -
            listParkingLotIds(): List<ParkingLot> 
            findParkingLot(): Optional<ParkingLot> 
        }
        interface ParkingPolicy {
            findParkingLotToPark(Collection<ParkingLot> parkingLots): ParkingLot 
        }
        ParkingManagerSpecification -up-|> ParkingLotFinderSpecification
        ParkingBoySpecification -up-|> ParkingLotFinderSpecification
        ParkingManager -up-|> ParkingLotFinder
        ParkingBoy -up-|> ParkingLotFinder
        ParkingManager *-left-> ParkingBoy
        ParkingBoy *- -> ParkingPolicy
    }

    package policy {
        class SeniorParkingPolicy <<Value Object>> {
            findParkingLotToPark(Collection<ParkingLot> parkingLots): ParkingLot 
        }
        class JuniorParkingPolicy <<Value Object>> {
            findParkingLotToPark(Collection<ParkingLot> parkingLots): ParkingLot 
        }
        SeniorParkingPolicy -up-|> ParkingPolicy
        JuniorParkingPolicy -up-|> ParkingPolicy
    }
}

namespace configcontext <<Support SubDomain>> {
  class ParkingManagerConfig <<Entity>> <<Aggregate Root>> {
     id: ParkingManagerConfigId 
     parkingBoyIds: List<ParkingBoyConfigId> 
  }
  class ParkingBoyConfig <<Entity>> <<Aggregate Root>> {
    id: ParkingBoyConfigId 
    parkingLotIds: List<ParkingLotId> 
    name: ParkingPolicyName 
  }
  enum ParkingPolicyEnum <<Value Object>>
  ParkingBoyConfig - -> ParkingPolicyEnum
  ParkingManagerConfig - -[hidden] ParkingBoyConfig
}

@enduml

PlantUML version 1.2020.10(Sun May 17 17:35:57 CST 2020)
(GPL source distribution)
Java Runtime: OpenJDK Runtime Environment
JVM: OpenJDK 64-Bit Server VM
Java Version: 11.0.2+9
Operating System: Mac OS X
Default Encoding: UTF-8
Language: en
Country: CN
--></g></svg>